<mxfile host="app.diagrams.net" agent="Mozilla/5.0 (Windows NT 10.0; Win64; x64) AppleWebKit/537.36 (KHTML, like Gecko) Chrome/133.0.0.0 Safari/537.36" version="26.0.16">
  <diagram name="Page-1" id="tb0Kc1vyMLI_2YGqkasV">
    <mxGraphModel dx="1259" dy="655" grid="1" gridSize="10" guides="1" tooltips="1" connect="1" arrows="1" fold="1" page="1" pageScale="1" pageWidth="850" pageHeight="1100" math="0" shadow="0">
      <root>
        <mxCell id="0" />
        <mxCell id="1" parent="0" />
        <mxCell id="bhIU3yVx-mt7VrjV0W9J-1" value="" style="rounded=0;whiteSpace=wrap;html=1;fillColor=#dae8fc;strokeColor=#6c8ebf;" vertex="1" parent="1">
          <mxGeometry x="120" y="80" width="360" height="240" as="geometry" />
        </mxCell>
        <mxCell id="bhIU3yVx-mt7VrjV0W9J-8" style="edgeStyle=orthogonalEdgeStyle;rounded=0;orthogonalLoop=1;jettySize=auto;html=1;" edge="1" parent="1" source="bhIU3yVx-mt7VrjV0W9J-2">
          <mxGeometry relative="1" as="geometry">
            <mxPoint x="185" y="250" as="targetPoint" />
          </mxGeometry>
        </mxCell>
        <mxCell id="bhIU3yVx-mt7VrjV0W9J-2" value="" style="image;sketch=0;aspect=fixed;html=1;points=[];align=center;fontSize=12;image=img/lib/mscae/Docker.svg;" vertex="1" parent="1">
          <mxGeometry x="160" y="100" width="50" height="41" as="geometry" />
        </mxCell>
        <mxCell id="bhIU3yVx-mt7VrjV0W9J-7" style="edgeStyle=orthogonalEdgeStyle;rounded=0;orthogonalLoop=1;jettySize=auto;html=1;" edge="1" parent="1" source="bhIU3yVx-mt7VrjV0W9J-3">
          <mxGeometry relative="1" as="geometry">
            <mxPoint x="290" y="250" as="targetPoint" />
          </mxGeometry>
        </mxCell>
        <mxCell id="bhIU3yVx-mt7VrjV0W9J-3" value="" style="shape=image;html=1;verticalAlign=top;verticalLabelPosition=bottom;labelBackgroundColor=#ffffff;imageAspect=0;aspect=fixed;image=https://cdn1.iconfinder.com/data/icons/unicons-line-vol-3/24/docker-128.png" vertex="1" parent="1">
          <mxGeometry x="260" y="82" width="59" height="59" as="geometry" />
        </mxCell>
        <mxCell id="bhIU3yVx-mt7VrjV0W9J-9" style="edgeStyle=orthogonalEdgeStyle;rounded=0;orthogonalLoop=1;jettySize=auto;html=1;" edge="1" parent="1" source="bhIU3yVx-mt7VrjV0W9J-4">
          <mxGeometry relative="1" as="geometry">
            <mxPoint x="395.5" y="250" as="targetPoint" />
          </mxGeometry>
        </mxCell>
        <mxCell id="bhIU3yVx-mt7VrjV0W9J-4" value="" style="shape=image;html=1;verticalAlign=top;verticalLabelPosition=bottom;labelBackgroundColor=#ffffff;imageAspect=0;aspect=fixed;image=https://cdn1.iconfinder.com/data/icons/unicons-line-vol-3/24/docker-128.png" vertex="1" parent="1">
          <mxGeometry x="366" y="100" width="59" height="59" as="geometry" />
        </mxCell>
        <mxCell id="bhIU3yVx-mt7VrjV0W9J-5" value="" style="endArrow=none;html=1;rounded=0;exitX=0.002;exitY=0.698;exitDx=0;exitDy=0;exitPerimeter=0;entryX=0.997;entryY=0.698;entryDx=0;entryDy=0;entryPerimeter=0;" edge="1" parent="1" source="bhIU3yVx-mt7VrjV0W9J-1" target="bhIU3yVx-mt7VrjV0W9J-1">
          <mxGeometry width="50" height="50" relative="1" as="geometry">
            <mxPoint x="400" y="360" as="sourcePoint" />
            <mxPoint x="450" y="310" as="targetPoint" />
          </mxGeometry>
        </mxCell>
        <mxCell id="bhIU3yVx-mt7VrjV0W9J-6" value="&lt;b&gt;HD, CPU and RAM&lt;/b&gt;" style="text;html=1;align=center;verticalAlign=middle;resizable=0;points=[];autosize=1;strokeColor=none;fillColor=none;" vertex="1" parent="1">
          <mxGeometry x="236" y="270" width="130" height="30" as="geometry" />
        </mxCell>
      </root>
    </mxGraphModel>
  </diagram>
</mxfile>
